<svg width="5" height="13" viewBox="0 0 5 13" fill="none" xmlns="http://www.w3.org/2000/svg">
<path d="M4.36328 13H2.92188V2.11035C2.81055 2.22168 2.64648 2.35059 2.42969 2.49707C2.21875 2.6377 1.97852 2.77832 1.70898 2.91895C1.44531 3.05957 1.16406 3.19141 0.865234 3.31445C0.572266 3.4375 0.285156 3.53418 0.00390625 3.60449V2.14551C0.320312 2.05762 0.654297 1.94043 1.00586 1.79395C1.36328 1.6416 1.71191 1.47461 2.05176 1.29297C2.39746 1.10547 2.72266 0.912109 3.02734 0.712891C3.33203 0.507812 3.5957 0.308594 3.81836 0.115234H4.36328V13Z" fill="white"/>
<path d="M4.36328 13V14H5.36328V13H4.36328ZM2.92188 13H1.92188V14H2.92188V13ZM2.92188 2.11035H3.92188V-0.303862L2.21477 1.40324L2.92188 2.11035ZM2.42969 2.49707L2.9844 3.32914L2.98954 3.32566L2.42969 2.49707ZM1.70898 2.91895L1.2464 2.03232L1.2384 2.03659L1.70898 2.91895ZM0.865234 3.31445L0.484475 2.38975L0.478002 2.39247L0.865234 3.31445ZM0.00390625 3.60449H-0.996094V4.88527L0.246442 4.57463L0.00390625 3.60449ZM0.00390625 2.14551L-0.263738 1.18199L-0.996094 1.38542V2.14551H0.00390625ZM1.00586 1.79395L1.39049 2.71705L1.39796 2.71387L1.00586 1.79395ZM2.05176 1.29297L2.52314 2.17492L2.52852 2.172L2.05176 1.29297ZM3.02734 0.712891L3.57464 1.54993L3.58572 1.54248L3.02734 0.712891ZM3.81836 0.115234V-0.884766H3.44476L3.16267 -0.639799L3.81836 0.115234ZM4.36328 0.115234H5.36328V-0.884766H4.36328V0.115234ZM4.36328 12H2.92188V14H4.36328V12ZM3.92188 13V2.11035H1.92188V13H3.92188ZM2.21477 1.40324C2.16831 1.44971 2.06352 1.53761 1.86983 1.66848L2.98954 3.32566C3.22945 3.16356 3.45279 2.99365 3.62898 2.81746L2.21477 1.40324ZM1.87499 1.66502C1.69892 1.7824 1.49029 1.90512 1.24642 2.03236L2.17155 3.80553C2.46674 3.65152 2.73858 3.49299 2.98439 3.32912L1.87499 1.66502ZM1.2384 2.03659C1.0062 2.16043 0.755133 2.27833 0.484485 2.38978L1.24598 4.23913C1.57299 4.10448 1.88443 3.95871 2.17957 3.8013L1.2384 2.03659ZM0.478002 2.39247C0.227549 2.49766 -0.0112104 2.57749 -0.238629 2.63435L0.246442 4.57463C0.581523 4.49086 0.916983 4.37734 1.25247 4.23643L0.478002 2.39247ZM1.00391 3.60449V2.14551H-0.996094V3.60449H1.00391ZM0.27155 3.10903C0.63343 3.0085 1.00666 2.87695 1.39047 2.71702L0.621244 0.870869C0.301934 1.00391 0.00719476 1.10673 -0.263738 1.18199L0.27155 3.10903ZM1.39796 2.71387C1.78213 2.55012 2.15722 2.37047 2.52314 2.1749L1.58038 0.411037C1.26661 0.578744 0.944436 0.733079 0.613761 0.874022L1.39796 2.71387ZM2.52852 2.172C2.89639 1.97248 3.24526 1.76519 3.57459 1.54986L2.48009 -0.124079C2.20005 0.0590248 1.89853 0.238459 1.57499 0.413937L2.52852 2.172ZM3.58572 1.54248C3.91649 1.31984 4.21411 1.096 4.47405 0.870268L3.16267 -0.639799C2.9773 -0.478816 2.74757 -0.304217 2.46897 -0.116697L3.58572 1.54248ZM3.81836 1.11523H4.36328V-0.884766H3.81836V1.11523ZM3.36328 0.115234V13H5.36328V0.115234H3.36328Z" fill="white"/>
</svg>
